<svg width="262" height="166" viewBox="0 0 262 166" fill="none" xmlns="http://www.w3.org/2000/svg">
<g filter="url(#filter0_b_64_1015)">
<rect x="0.0405273" y="0.664978" width="261.959" height="165.335" rx="14.1323" fill="white" fill-opacity="0.2"/>
<rect x="226.041" y="68.5326" width="8.00001" height="72" rx="4" transform="rotate(90 226.041 68.5326)" fill="#95ABBC"/>
<rect x="222.041" y="90.665" width="8.00001" height="68" rx="4" transform="rotate(90 222.041 90.665)" fill="#95ABBC"/>
<rect x="230.041" y="112.797" width="8.00001" height="76" rx="4" transform="rotate(90 230.041 112.797)" fill="#95ABBC"/>
<g clip-path="url(#clip0_64_1015)">
<path d="M114.686 94.2946C114.686 116.346 96.8541 134.197 74.8881 134.197C52.9222 134.197 35.0898 116.346 35.0898 94.2946C35.0898 72.2433 52.9222 54.3926 74.8881 54.3926C96.8541 54.3926 114.686 72.2433 114.686 94.2946Z" stroke="#0A2640" stroke-width="13.3928"/>
<mask id="mask0_64_1015" style="mask-type:alpha" maskUnits="userSpaceOnUse" x="0" y="30" width="74" height="122">
<path d="M73.405 89.9976L55.2687 30.8407L0.365356 100.573L29.5482 151.468L73.405 89.9976Z" fill="#C4C4C4"/>
</mask>
<g mask="url(#mask0_64_1015)">
<path d="M114.687 94.294C114.687 116.345 96.855 134.196 74.889 134.196C52.9231 134.196 35.0907 116.345 35.0907 94.294C35.0907 72.2427 52.9231 54.392 74.889 54.392C96.855 54.392 114.687 72.2427 114.687 94.294Z" stroke="#0DBBFC" stroke-width="13.3928"/>
</g>
<mask id="mask1_64_1015" style="mask-type:alpha" maskUnits="userSpaceOnUse" x="49" y="25" width="91" height="85">
<path d="M79.5436 95.1817L139.54 109.873L107.835 26.9133L49.2718 25.9598L79.5436 95.1817Z" fill="#C4C4C4"/>
</mask>
<g mask="url(#mask1_64_1015)">
<path d="M54.4887 128.535C35.5965 117.249 29.3963 92.7627 40.6426 73.8415C51.8889 54.9204 76.3215 48.7323 95.2137 60.0176C114.106 71.303 120.306 95.7896 109.06 114.711C97.8135 133.632 73.3809 139.82 54.4887 128.535Z" stroke="#69E6A6" stroke-width="13.3928"/>
</g>
</g>
</g>
<ellipse cx="20.9421" cy="18" rx="4.8" ry="5" fill="#FC5B00"/>
<ellipse cx="40.1422" cy="18" rx="4.8" ry="5" fill="#ECAA00"/>
<ellipse cx="59.342" cy="18" rx="4.8" ry="5" fill="#009D10"/>
<defs>
<filter id="filter0_b_64_1015" x="-133.086" y="-132.462" width="528.213" height="431.589" filterUnits="userSpaceOnUse" color-interpolation-filters="sRGB">
<feFlood flood-opacity="0" result="BackgroundImageFix"/>
<feGaussianBlur in="BackgroundImage" stdDeviation="66.5635"/>
<feComposite in2="SourceAlpha" operator="in" result="effect1_backgroundBlur_64_1015"/>
<feBlend mode="normal" in="SourceGraphic" in2="effect1_backgroundBlur_64_1015" result="shape"/>
</filter>
<clipPath id="clip0_64_1015">
<rect width="93.0378" height="93.0378" fill="white" transform="translate(28.3052 47.7727)"/>
</clipPath>
</defs>
</svg>
