<svg width="355" height="452" viewBox="0 0 355 452" fill="none" xmlns="http://www.w3.org/2000/svg">
<g filter="url(#filter0_d_56_719)">
<rect x="32" y="28" width="291" height="388" rx="12" fill="white"/>
</g>
<g clip-path="url(#clip0_56_719)">
<path d="M251.328 162.53C251.328 203.644 218.079 236.927 177.124 236.927C136.168 236.927 102.919 203.644 102.919 162.53C102.919 121.415 136.168 88.132 177.124 88.132C218.079 88.132 251.328 121.415 251.328 162.53Z" stroke="#0A2640" stroke-width="24.971"/>
<mask id="mask0_56_719" style="mask-type:alpha" maskUnits="userSpaceOnUse" x="38" y="44" width="137" height="226">
<path d="M174.357 154.519L140.542 44.2205L38.1743 174.237L92.5859 269.131L174.357 154.519Z" fill="#C4C4C4"/>
</mask>
<g mask="url(#mask0_56_719)">
<path d="M251.328 162.529C251.328 203.644 218.08 236.927 177.124 236.927C136.168 236.927 102.92 203.644 102.92 162.529C102.92 121.414 136.168 88.1317 177.124 88.1317C218.08 88.1317 251.328 121.414 251.328 162.529Z" stroke="#0DBBFC" stroke-width="24.971"/>
</g>
<mask id="mask1_56_719" style="mask-type:alpha" maskUnits="userSpaceOnUse" x="129" y="35" width="169" height="157">
<path d="M185.803 164.184L297.668 191.575L238.552 36.8971L129.361 35.1193L185.803 164.184Z" fill="#C4C4C4"/>
</mask>
<g mask="url(#mask1_56_719)">
<path d="M139.088 226.371C103.863 205.33 92.3026 159.674 113.271 124.396C134.24 89.1172 179.795 77.5795 215.02 98.6211C250.244 119.663 261.805 165.318 240.836 200.597C219.867 235.875 174.312 247.413 139.088 226.371Z" stroke="#69E6A6" stroke-width="24.971"/>
</g>
</g>
<g clip-path="url(#clip1_56_719)">
<path d="M104.369 289.251C103.874 289.251 103.418 289.163 103.002 288.987C102.586 288.811 102.227 288.562 101.926 288.238C101.626 287.909 101.406 287.518 101.267 287.065L102.239 286.774C102.405 287.269 102.678 287.643 103.057 287.898C103.441 288.152 103.874 288.275 104.355 288.265C104.799 288.256 105.181 288.157 105.5 287.967C105.824 287.777 106.071 287.514 106.242 287.176C106.413 286.838 106.499 286.448 106.499 286.003C106.499 285.323 106.3 284.778 105.902 284.366C105.509 283.95 104.989 283.741 104.341 283.741C104.161 283.741 103.971 283.767 103.772 283.818C103.573 283.864 103.388 283.931 103.217 284.019L102.704 283.207L106.589 279.62L106.756 280.036H101.663V279.058H107.436V280.05L104.05 283.283L104.036 282.881C104.73 282.793 105.34 282.872 105.868 283.117C106.395 283.362 106.807 283.737 107.103 284.241C107.403 284.741 107.554 285.328 107.554 286.003C107.554 286.642 107.415 287.206 107.137 287.696C106.864 288.182 106.487 288.564 106.006 288.841C105.525 289.114 104.979 289.251 104.369 289.251ZM112.303 289.258C111.785 289.258 111.306 289.151 110.867 288.939C110.427 288.726 110.053 288.432 109.743 288.057C109.433 287.683 109.211 287.252 109.077 286.767L110.055 286.503C110.143 286.864 110.302 287.176 110.534 287.44C110.765 287.699 111.036 287.9 111.346 288.043C111.66 288.187 111.989 288.259 112.331 288.259C112.775 288.259 113.173 288.152 113.524 287.939C113.881 287.722 114.163 287.435 114.371 287.079C114.579 286.723 114.683 286.332 114.683 285.906C114.683 285.467 114.574 285.071 114.357 284.72C114.14 284.364 113.853 284.081 113.497 283.873C113.14 283.665 112.752 283.561 112.331 283.561C111.859 283.561 111.452 283.665 111.11 283.873C110.767 284.077 110.494 284.334 110.291 284.643L109.361 284.255L109.666 279.058H115.002V280.036H110.117L110.624 279.557L110.353 283.991L110.097 283.651C110.383 283.323 110.73 283.066 111.137 282.881C111.544 282.696 111.972 282.603 112.421 282.603C113.036 282.603 113.591 282.751 114.086 283.048C114.581 283.339 114.975 283.734 115.266 284.234C115.557 284.734 115.703 285.291 115.703 285.906C115.703 286.517 115.548 287.077 115.238 287.585C114.928 288.09 114.517 288.494 114.003 288.8C113.49 289.105 112.923 289.258 112.303 289.258ZM118.335 289.05L117.641 288.356L126.96 279.058L127.654 279.745L118.335 289.05ZM125.572 289.258C125.114 289.258 124.696 289.147 124.316 288.925C123.941 288.698 123.641 288.397 123.414 288.023C123.187 287.643 123.074 287.222 123.074 286.76C123.074 286.306 123.19 285.89 123.421 285.511C123.652 285.131 123.958 284.828 124.337 284.602C124.716 284.375 125.128 284.262 125.572 284.262C126.03 284.262 126.449 284.375 126.828 284.602C127.207 284.824 127.508 285.125 127.73 285.504C127.957 285.879 128.07 286.297 128.07 286.76C128.07 287.222 127.957 287.643 127.73 288.023C127.508 288.397 127.207 288.698 126.828 288.925C126.449 289.147 126.03 289.258 125.572 289.258ZM125.572 288.335C125.854 288.335 126.116 288.263 126.356 288.12C126.597 287.976 126.789 287.787 126.932 287.551C127.076 287.31 127.147 287.047 127.147 286.76C127.147 286.473 127.076 286.212 126.932 285.976C126.789 285.735 126.597 285.543 126.356 285.4C126.116 285.256 125.854 285.185 125.572 285.185C125.285 285.185 125.022 285.256 124.781 285.4C124.545 285.543 124.353 285.735 124.205 285.976C124.062 286.212 123.99 286.473 123.99 286.76C123.99 287.047 124.062 287.31 124.205 287.551C124.353 287.787 124.545 287.976 124.781 288.12C125.022 288.263 125.285 288.335 125.572 288.335ZM119.723 283.845C119.265 283.845 118.846 283.734 118.467 283.512C118.087 283.286 117.784 282.985 117.558 282.61C117.336 282.231 117.225 281.81 117.225 281.348C117.225 280.894 117.34 280.478 117.572 280.099C117.803 279.719 118.108 279.416 118.488 279.19C118.867 278.963 119.279 278.85 119.723 278.85C120.181 278.85 120.597 278.963 120.972 279.19C121.351 279.412 121.654 279.712 121.881 280.092C122.107 280.466 122.221 280.885 122.221 281.348C122.221 281.81 122.107 282.231 121.881 282.61C121.654 282.985 121.351 283.286 120.972 283.512C120.597 283.734 120.181 283.845 119.723 283.845ZM119.723 282.923C120.01 282.923 120.271 282.851 120.507 282.708C120.747 282.564 120.939 282.374 121.083 282.139C121.226 281.898 121.298 281.634 121.298 281.348C121.298 281.061 121.226 280.799 121.083 280.563C120.939 280.323 120.747 280.131 120.507 279.988C120.271 279.844 120.01 279.772 119.723 279.772C119.436 279.772 119.172 279.844 118.932 279.988C118.696 280.131 118.506 280.323 118.363 280.563C118.219 280.799 118.148 281.061 118.148 281.348C118.148 281.634 118.219 281.898 118.363 282.139C118.506 282.374 118.696 282.564 118.932 282.708C119.172 282.851 119.436 282.923 119.723 282.923ZM132.512 285.115V284.241H136.675V285.115H132.512ZM143.341 289.05L146.782 279.058H148.135L151.577 289.05H150.515L147.247 279.627H147.65L144.402 289.05H143.341ZM144.874 286.628V285.67H150.036V286.628H144.874ZM155.807 292.588C155.423 292.588 155.043 292.531 154.669 292.415C154.299 292.304 153.956 292.126 153.642 291.881C153.327 291.64 153.063 291.325 152.851 290.937L153.774 290.423C153.982 290.84 154.273 291.138 154.648 291.319C155.027 291.504 155.413 291.596 155.807 291.596C156.348 291.596 156.785 291.494 157.118 291.291C157.456 291.092 157.701 290.796 157.854 290.403C158.006 290.009 158.08 289.519 158.076 288.932V286.933H158.194V281.556H159.103V288.945C159.103 289.158 159.096 289.362 159.082 289.556C159.072 289.755 159.052 289.949 159.019 290.139C158.931 290.699 158.749 291.159 158.471 291.52C158.198 291.881 157.837 292.149 157.389 292.325C156.945 292.5 156.417 292.588 155.807 292.588ZM155.737 289.258C155.039 289.258 154.442 289.084 153.947 288.737C153.452 288.386 153.073 287.912 152.809 287.315C152.545 286.718 152.414 286.045 152.414 285.296C152.414 284.551 152.543 283.88 152.802 283.283C153.066 282.687 153.443 282.215 153.933 281.868C154.423 281.521 155.011 281.348 155.696 281.348C156.399 281.348 156.991 281.519 157.472 281.861C157.953 282.203 158.316 282.673 158.561 283.27C158.811 283.862 158.936 284.537 158.936 285.296C158.936 286.04 158.813 286.714 158.568 287.315C158.323 287.912 157.962 288.386 157.486 288.737C157.009 289.084 156.426 289.258 155.737 289.258ZM155.841 288.307C156.373 288.307 156.813 288.178 157.16 287.919C157.507 287.659 157.766 287.303 157.937 286.85C158.108 286.392 158.194 285.874 158.194 285.296C158.194 284.708 158.108 284.19 157.937 283.741C157.766 283.288 157.507 282.934 157.16 282.68C156.817 282.425 156.385 282.298 155.862 282.298C155.326 282.298 154.881 282.43 154.53 282.694C154.178 282.957 153.917 283.316 153.746 283.769C153.579 284.222 153.496 284.731 153.496 285.296C153.496 285.865 153.582 286.378 153.753 286.836C153.929 287.289 154.19 287.648 154.537 287.912C154.884 288.175 155.319 288.307 155.841 288.307ZM161.181 280.133V278.988H162.201V280.133H161.181ZM161.181 289.05V281.556H162.201V289.05H161.181ZM164.42 289.05V278.85H165.44V289.05H164.42ZM170.692 289.258C169.961 289.258 169.327 289.096 168.79 288.772C168.258 288.448 167.844 287.993 167.548 287.405C167.252 286.818 167.104 286.128 167.104 285.337C167.104 284.519 167.25 283.811 167.541 283.214C167.833 282.617 168.242 282.157 168.77 281.833C169.302 281.509 169.928 281.348 170.65 281.348C171.39 281.348 172.022 281.519 172.544 281.861C173.067 282.199 173.462 282.684 173.731 283.318C173.999 283.952 174.122 284.708 174.099 285.587H173.058V285.226C173.039 284.255 172.829 283.522 172.426 283.027C172.028 282.532 171.446 282.284 170.678 282.284C169.873 282.284 169.255 282.546 168.825 283.068C168.399 283.591 168.187 284.336 168.187 285.303C168.187 286.246 168.399 286.979 168.825 287.502C169.255 288.02 169.864 288.279 170.65 288.279C171.187 288.279 171.654 288.157 172.052 287.912C172.454 287.662 172.771 287.303 173.002 286.836L173.953 287.204C173.657 287.856 173.22 288.363 172.641 288.723C172.068 289.08 171.418 289.258 170.692 289.258ZM167.826 285.587V284.734H173.55V285.587H167.826ZM178.417 289.05V279.058H181.449C181.555 279.058 181.736 279.06 181.99 279.065C182.249 279.069 182.497 279.088 182.733 279.12C183.491 279.227 184.125 279.509 184.634 279.967C185.143 280.425 185.524 281.008 185.779 281.715C186.033 282.423 186.16 283.202 186.16 284.054C186.16 284.905 186.033 285.684 185.779 286.392C185.524 287.1 185.143 287.683 184.634 288.141C184.125 288.599 183.491 288.881 182.733 288.987C182.501 289.015 182.254 289.033 181.99 289.043C181.726 289.047 181.546 289.05 181.449 289.05H178.417ZM179.471 288.071H181.449C181.639 288.071 181.842 288.067 182.059 288.057C182.282 288.043 182.471 288.02 182.628 287.988C183.211 287.886 183.681 287.65 184.037 287.28C184.398 286.91 184.662 286.448 184.828 285.892C184.995 285.333 185.078 284.72 185.078 284.054C185.078 283.383 184.995 282.768 184.828 282.208C184.662 281.648 184.398 281.186 184.037 280.82C183.676 280.455 183.207 280.221 182.628 280.119C182.471 280.087 182.279 280.066 182.053 280.057C181.83 280.043 181.629 280.036 181.449 280.036H179.471V288.071ZM190.912 289.258C190.181 289.258 189.547 289.096 189.01 288.772C188.478 288.448 188.064 287.993 187.768 287.405C187.472 286.818 187.324 286.128 187.324 285.337C187.324 284.519 187.47 283.811 187.761 283.214C188.053 282.617 188.462 282.157 188.99 281.833C189.522 281.509 190.148 281.348 190.87 281.348C191.61 281.348 192.242 281.519 192.764 281.861C193.287 282.199 193.683 282.684 193.951 283.318C194.219 283.952 194.342 284.708 194.319 285.587H193.278V285.226C193.259 284.255 193.049 283.522 192.646 283.027C192.248 282.532 191.666 282.284 190.898 282.284C190.093 282.284 189.475 282.546 189.045 283.068C188.62 283.591 188.407 284.336 188.407 285.303C188.407 286.246 188.62 286.979 189.045 287.502C189.475 288.02 190.084 288.279 190.87 288.279C191.407 288.279 191.874 288.157 192.272 287.912C192.674 287.662 192.991 287.303 193.222 286.836L194.173 287.204C193.877 287.856 193.44 288.363 192.861 288.723C192.288 289.08 191.638 289.258 190.912 289.258ZM188.046 285.587V284.734H193.77V285.587H188.046ZM197.614 289.05L194.894 281.556H195.927L198.141 287.717L200.34 281.556H201.388L198.668 289.05H197.614ZM205.535 289.258C204.804 289.258 204.17 289.096 203.633 288.772C203.101 288.448 202.687 287.993 202.391 287.405C202.095 286.818 201.947 286.128 201.947 285.337C201.947 284.519 202.093 283.811 202.384 283.214C202.676 282.617 203.085 282.157 203.613 281.833C204.144 281.509 204.771 281.348 205.493 281.348C206.233 281.348 206.864 281.519 207.387 281.861C207.91 282.199 208.305 282.684 208.574 283.318C208.842 283.952 208.965 284.708 208.941 285.587H207.901V285.226C207.882 284.255 207.672 283.522 207.269 283.027C206.871 282.532 206.289 282.284 205.521 282.284C204.716 282.284 204.098 282.546 203.668 283.068C203.242 283.591 203.03 284.336 203.03 285.303C203.03 286.246 203.242 286.979 203.668 287.502C204.098 288.02 204.707 288.279 205.493 288.279C206.03 288.279 206.497 288.157 206.895 287.912C207.297 287.662 207.614 287.303 207.845 286.836L208.796 287.204C208.5 287.856 208.063 288.363 207.484 288.723C206.911 289.08 206.261 289.258 205.535 289.258ZM202.669 285.587V284.734H208.393V285.587H202.669ZM210.62 289.05V278.85H211.64V289.05H210.62ZM216.85 289.258C216.105 289.258 215.469 289.089 214.942 288.751C214.414 288.414 214.009 287.946 213.727 287.35C213.445 286.753 213.304 286.068 213.304 285.296C213.304 284.509 213.447 283.82 213.734 283.228C214.021 282.636 214.428 282.176 214.955 281.847C215.487 281.514 216.119 281.348 216.85 281.348C217.599 281.348 218.237 281.516 218.765 281.854C219.297 282.187 219.702 282.652 219.979 283.249C220.261 283.841 220.402 284.523 220.402 285.296C220.402 286.082 220.261 286.774 219.979 287.37C219.697 287.962 219.29 288.425 218.758 288.758C218.226 289.091 217.59 289.258 216.85 289.258ZM216.85 288.279C217.682 288.279 218.302 288.004 218.709 287.454C219.116 286.899 219.32 286.179 219.32 285.296C219.32 284.389 219.114 283.667 218.702 283.131C218.295 282.594 217.678 282.326 216.85 282.326C216.29 282.326 215.827 282.453 215.462 282.708C215.101 282.957 214.831 283.307 214.65 283.755C214.474 284.199 214.386 284.713 214.386 285.296C214.386 286.198 214.595 286.922 215.011 287.468C215.427 288.009 216.04 288.279 216.85 288.279ZM225.298 289.258C224.609 289.258 224.026 289.084 223.55 288.737C223.073 288.386 222.712 287.912 222.467 287.315C222.222 286.714 222.1 286.04 222.1 285.296C222.1 284.537 222.222 283.862 222.467 283.27C222.717 282.673 223.083 282.203 223.564 281.861C224.045 281.519 224.637 281.348 225.34 281.348C226.025 281.348 226.612 281.521 227.102 281.868C227.593 282.215 227.967 282.687 228.227 283.283C228.49 283.88 228.622 284.551 228.622 285.296C228.622 286.045 228.49 286.718 228.227 287.315C227.963 287.912 227.584 288.386 227.089 288.737C226.594 289.084 225.997 289.258 225.298 289.258ZM221.926 292.38V281.556H222.842V287.197H222.953V292.38H221.926ZM225.194 288.307C225.717 288.307 226.152 288.175 226.499 287.912C226.846 287.648 227.105 287.289 227.276 286.836C227.452 286.378 227.54 285.865 227.54 285.296C227.54 284.731 227.454 284.222 227.283 283.769C227.112 283.316 226.85 282.957 226.499 282.694C226.152 282.43 225.71 282.298 225.173 282.298C224.651 282.298 224.216 282.425 223.869 282.68C223.527 282.934 223.27 283.288 223.099 283.741C222.928 284.19 222.842 284.708 222.842 285.296C222.842 285.874 222.928 286.392 223.099 286.85C223.27 287.303 223.529 287.659 223.876 287.919C224.223 288.178 224.662 288.307 225.194 288.307ZM239.083 289.05L239.09 284.13C239.09 283.552 238.928 283.098 238.604 282.77C238.285 282.437 237.878 282.27 237.383 282.27C237.101 282.27 236.825 282.335 236.557 282.465C236.289 282.594 236.067 282.802 235.891 283.089C235.72 283.376 235.634 283.751 235.634 284.213L235.031 284.04C235.017 283.503 235.121 283.034 235.343 282.631C235.57 282.229 235.879 281.916 236.273 281.694C236.67 281.468 237.119 281.354 237.619 281.354C238.373 281.354 238.976 281.588 239.43 282.055C239.883 282.518 240.11 283.145 240.11 283.936L240.103 289.05H239.083ZM230.139 289.05V281.556H231.055V283.401H231.166V289.05H230.139ZM234.621 289.05L234.628 284.199C234.628 283.603 234.469 283.133 234.149 282.791C233.835 282.444 233.419 282.27 232.9 282.27C232.382 282.27 231.964 282.448 231.645 282.805C231.325 283.156 231.166 283.626 231.166 284.213L230.555 283.88C230.555 283.399 230.668 282.969 230.895 282.59C231.122 282.206 231.432 281.905 231.825 281.688C232.218 281.465 232.665 281.354 233.164 281.354C233.641 281.354 234.064 281.456 234.434 281.66C234.809 281.863 235.102 282.159 235.315 282.548C235.528 282.936 235.634 283.408 235.634 283.963L235.627 289.05H234.621ZM245.026 289.258C244.295 289.258 243.661 289.096 243.125 288.772C242.593 288.448 242.179 287.993 241.883 287.405C241.587 286.818 241.439 286.128 241.439 285.337C241.439 284.519 241.584 283.811 241.876 283.214C242.167 282.617 242.577 282.157 243.104 281.833C243.636 281.509 244.263 281.348 244.984 281.348C245.724 281.348 246.356 281.519 246.879 281.861C247.401 282.199 247.797 282.684 248.065 283.318C248.333 283.952 248.456 284.708 248.433 285.587H247.392V285.226C247.374 284.255 247.163 283.522 246.761 283.027C246.363 282.532 245.78 282.284 245.012 282.284C244.207 282.284 243.59 282.546 243.159 283.068C242.734 283.591 242.521 284.336 242.521 285.303C242.521 286.246 242.734 286.979 243.159 287.502C243.59 288.02 244.198 288.279 244.984 288.279C245.521 288.279 245.988 288.157 246.386 287.912C246.788 287.662 247.105 287.303 247.337 286.836L248.287 287.204C247.991 287.856 247.554 288.363 246.976 288.723C246.402 289.08 245.752 289.258 245.026 289.258ZM242.16 285.587V284.734H247.885V285.587H242.16ZM255.182 289.05V285.226C255.182 284.81 255.142 284.428 255.064 284.081C254.985 283.73 254.858 283.425 254.682 283.165C254.511 282.902 254.287 282.698 254.009 282.555C253.736 282.411 253.403 282.34 253.01 282.34C252.649 282.34 252.33 282.402 252.052 282.527C251.779 282.652 251.548 282.832 251.358 283.068C251.173 283.3 251.032 283.582 250.935 283.915C250.838 284.248 250.789 284.627 250.789 285.053L250.068 284.893C250.068 284.125 250.202 283.48 250.47 282.957C250.739 282.435 251.109 282.039 251.58 281.771C252.052 281.502 252.594 281.368 253.204 281.368C253.653 281.368 254.044 281.438 254.377 281.576C254.714 281.715 254.999 281.903 255.23 282.139C255.466 282.374 255.656 282.645 255.799 282.95C255.943 283.251 256.047 283.573 256.111 283.915C256.176 284.253 256.209 284.59 256.209 284.928V289.05H255.182ZM249.763 289.05V281.556H250.685V283.401H250.789V289.05H249.763ZM262.089 289.05C261.668 289.137 261.252 289.172 260.84 289.154C260.433 289.135 260.068 289.047 259.744 288.89C259.425 288.733 259.182 288.488 259.015 288.154C258.881 287.877 258.807 287.597 258.793 287.315C258.784 287.028 258.779 286.702 258.779 286.336V279.474H259.793V286.295C259.793 286.609 259.795 286.873 259.799 287.086C259.809 287.294 259.857 287.479 259.945 287.641C260.112 287.951 260.375 288.136 260.736 288.196C261.102 288.256 261.553 288.242 262.089 288.154V289.05ZM257.177 282.43V281.556H262.089V282.43H257.177Z" fill="black"/>
<ellipse cx="90.2751" cy="284.945" rx="2.485" ry="2.47813" fill="#0DBBFC"/>
<path d="M104.369 324.936C103.874 324.936 103.418 324.848 103.002 324.672C102.586 324.497 102.227 324.247 101.926 323.923C101.626 323.595 101.406 323.204 101.267 322.75L102.239 322.459C102.405 322.954 102.678 323.329 103.057 323.583C103.441 323.837 103.874 323.96 104.355 323.951C104.799 323.942 105.181 323.842 105.5 323.652C105.824 323.463 106.071 323.199 106.242 322.861C106.413 322.524 106.499 322.133 106.499 321.689C106.499 321.009 106.3 320.463 105.902 320.051C105.509 319.635 104.989 319.427 104.341 319.427C104.161 319.427 103.971 319.452 103.772 319.503C103.573 319.549 103.388 319.616 103.217 319.704L102.704 318.892L106.589 315.305L106.756 315.721H101.663V314.743H107.436V315.735L104.05 318.969L104.036 318.566C104.73 318.478 105.34 318.557 105.868 318.802C106.395 319.047 106.807 319.422 107.103 319.926C107.403 320.426 107.554 321.013 107.554 321.689C107.554 322.327 107.415 322.891 107.137 323.382C106.864 323.868 106.487 324.249 106.006 324.527C105.525 324.8 104.979 324.936 104.369 324.936ZM112.615 324.943C112 324.943 111.445 324.8 110.95 324.513C110.46 324.226 110.071 323.837 109.784 323.347C109.498 322.852 109.354 322.297 109.354 321.682V317.796C109.354 317.181 109.498 316.628 109.784 316.138C110.071 315.643 110.46 315.252 110.95 314.965C111.445 314.678 112 314.535 112.615 314.535C113.231 314.535 113.783 314.678 114.274 314.965C114.769 315.252 115.16 315.643 115.446 316.138C115.733 316.628 115.877 317.181 115.877 317.796V321.682C115.877 322.297 115.733 322.852 115.446 323.347C115.16 323.837 114.769 324.226 114.274 324.513C113.783 324.8 113.231 324.943 112.615 324.943ZM112.615 323.958C113.027 323.958 113.402 323.858 113.739 323.659C114.077 323.456 114.345 323.185 114.544 322.848C114.743 322.51 114.843 322.137 114.843 321.73V317.748C114.843 317.336 114.743 316.961 114.544 316.623C114.345 316.286 114.077 316.017 113.739 315.819C113.402 315.615 113.027 315.513 112.615 315.513C112.204 315.513 111.829 315.615 111.491 315.819C111.154 316.017 110.885 316.286 110.686 316.623C110.487 316.961 110.388 317.336 110.388 317.748V321.73C110.388 322.137 110.487 322.51 110.686 322.848C110.885 323.185 111.154 323.456 111.491 323.659C111.829 323.858 112.204 323.958 112.615 323.958ZM118.796 324.735L118.102 324.041L127.421 314.743L128.115 315.43L118.796 324.735ZM126.033 324.943C125.575 324.943 125.156 324.832 124.777 324.61C124.402 324.383 124.102 324.083 123.875 323.708C123.648 323.329 123.535 322.908 123.535 322.445C123.535 321.992 123.651 321.575 123.882 321.196C124.113 320.817 124.418 320.514 124.798 320.287C125.177 320.06 125.589 319.947 126.033 319.947C126.491 319.947 126.909 320.06 127.289 320.287C127.668 320.509 127.969 320.81 128.191 321.189C128.418 321.564 128.531 321.982 128.531 322.445C128.531 322.908 128.418 323.329 128.191 323.708C127.969 324.083 127.668 324.383 127.289 324.61C126.909 324.832 126.491 324.943 126.033 324.943ZM126.033 324.02C126.315 324.02 126.576 323.948 126.817 323.805C127.058 323.662 127.249 323.472 127.393 323.236C127.536 322.996 127.608 322.732 127.608 322.445C127.608 322.158 127.536 321.897 127.393 321.661C127.249 321.42 127.058 321.228 126.817 321.085C126.576 320.942 126.315 320.87 126.033 320.87C125.746 320.87 125.482 320.942 125.242 321.085C125.006 321.228 124.814 321.42 124.666 321.661C124.523 321.897 124.451 322.158 124.451 322.445C124.451 322.732 124.523 322.996 124.666 323.236C124.814 323.472 125.006 323.662 125.242 323.805C125.482 323.948 125.746 324.02 126.033 324.02ZM120.183 319.531C119.726 319.531 119.307 319.42 118.928 319.198C118.548 318.971 118.245 318.67 118.019 318.296C117.797 317.916 117.686 317.495 117.686 317.033C117.686 316.579 117.801 316.163 118.032 315.784C118.264 315.405 118.569 315.102 118.948 314.875C119.328 314.648 119.739 314.535 120.183 314.535C120.641 314.535 121.058 314.648 121.432 314.875C121.812 315.097 122.115 315.398 122.341 315.777C122.568 316.152 122.681 316.57 122.681 317.033C122.681 317.495 122.568 317.916 122.341 318.296C122.115 318.67 121.812 318.971 121.432 319.198C121.058 319.42 120.641 319.531 120.183 319.531ZM120.183 318.608C120.47 318.608 120.732 318.536 120.968 318.393C121.208 318.249 121.4 318.06 121.543 317.824C121.687 317.583 121.759 317.32 121.759 317.033C121.759 316.746 121.687 316.485 121.543 316.249C121.4 316.008 121.208 315.816 120.968 315.673C120.732 315.529 120.47 315.458 120.183 315.458C119.897 315.458 119.633 315.529 119.392 315.673C119.157 315.816 118.967 316.008 118.823 316.249C118.68 316.485 118.608 316.746 118.608 317.033C118.608 317.32 118.68 317.583 118.823 317.824C118.967 318.06 119.157 318.249 119.392 318.393C119.633 318.536 119.897 318.608 120.183 318.608ZM132.973 320.801V319.926H137.136V320.801H132.973ZM144.634 324.735V314.743H145.654V324.735H144.634ZM153.146 324.735V320.912C153.146 320.495 153.107 320.114 153.029 319.767C152.95 319.415 152.823 319.11 152.647 318.851C152.476 318.587 152.251 318.384 151.974 318.24C151.701 318.097 151.368 318.025 150.975 318.025C150.614 318.025 150.295 318.088 150.017 318.212C149.744 318.337 149.513 318.518 149.323 318.754C149.138 318.985 148.997 319.267 148.9 319.6C148.803 319.933 148.754 320.313 148.754 320.738L148.033 320.579C148.033 319.811 148.167 319.165 148.435 318.643C148.703 318.12 149.073 317.724 149.545 317.456C150.017 317.188 150.558 317.054 151.169 317.054C151.618 317.054 152.009 317.123 152.342 317.262C152.679 317.401 152.964 317.588 153.195 317.824C153.431 318.06 153.621 318.33 153.764 318.636C153.907 318.936 154.012 319.258 154.076 319.6C154.141 319.938 154.173 320.276 154.173 320.613V324.735H153.146ZM147.727 324.735V317.241H148.65V319.087H148.754V324.735H147.727ZM158 324.735L155.28 317.241H156.314L158.527 323.403L160.727 317.241H161.775L159.055 324.735H158ZM165.921 324.943C165.19 324.943 164.557 324.781 164.02 324.457C163.488 324.134 163.074 323.678 162.778 323.09C162.482 322.503 162.334 321.814 162.334 321.023C162.334 320.204 162.48 319.496 162.771 318.899C163.062 318.303 163.472 317.842 163.999 317.519C164.531 317.195 165.158 317.033 165.88 317.033C166.62 317.033 167.251 317.204 167.774 317.546C168.297 317.884 168.692 318.37 168.96 319.003C169.229 319.637 169.351 320.394 169.328 321.272H168.287V320.912C168.269 319.94 168.058 319.207 167.656 318.712C167.258 318.217 166.675 317.97 165.907 317.97C165.102 317.97 164.485 318.231 164.055 318.754C163.629 319.276 163.416 320.021 163.416 320.988C163.416 321.932 163.629 322.665 164.055 323.188C164.485 323.706 165.093 323.965 165.88 323.965C166.416 323.965 166.883 323.842 167.281 323.597C167.684 323.347 168.001 322.989 168.232 322.521L169.182 322.889C168.886 323.541 168.449 324.048 167.871 324.409C167.297 324.765 166.647 324.943 165.921 324.943ZM163.055 321.272V320.419H168.78V321.272H163.055ZM173.664 324.936C172.785 324.936 172.061 324.746 171.492 324.367C170.928 323.988 170.581 323.46 170.452 322.785L171.492 322.612C171.603 323.037 171.856 323.377 172.249 323.632C172.647 323.881 173.137 324.006 173.72 324.006C174.289 324.006 174.738 323.888 175.066 323.652C175.394 323.412 175.559 323.086 175.559 322.674C175.559 322.443 175.505 322.255 175.399 322.112C175.297 321.964 175.087 321.828 174.768 321.703C174.448 321.578 173.972 321.43 173.338 321.259C172.658 321.074 172.126 320.888 171.742 320.703C171.358 320.518 171.085 320.306 170.923 320.065C170.762 319.82 170.681 319.522 170.681 319.17C170.681 318.744 170.801 318.372 171.041 318.053C171.282 317.729 171.615 317.479 172.041 317.303C172.466 317.123 172.961 317.033 173.526 317.033C174.09 317.033 174.594 317.125 175.038 317.31C175.487 317.491 175.848 317.745 176.121 318.074C176.394 318.402 176.555 318.784 176.606 319.219L175.566 319.406C175.496 318.966 175.276 318.619 174.906 318.365C174.541 318.106 174.076 317.972 173.512 317.963C172.98 317.949 172.547 318.051 172.214 318.268C171.881 318.481 171.715 318.765 171.715 319.121C171.715 319.32 171.775 319.491 171.895 319.635C172.015 319.774 172.233 319.905 172.547 320.03C172.866 320.155 173.32 320.292 173.907 320.44C174.596 320.616 175.138 320.801 175.531 320.995C175.924 321.189 176.204 321.418 176.37 321.682C176.537 321.945 176.62 322.272 176.62 322.66C176.62 323.368 176.357 323.925 175.829 324.332C175.306 324.735 174.585 324.936 173.664 324.936ZM182.239 324.735C181.818 324.823 181.402 324.857 180.99 324.839C180.583 324.82 180.218 324.733 179.894 324.575C179.575 324.418 179.332 324.173 179.165 323.84C179.031 323.562 178.957 323.282 178.943 323C178.934 322.713 178.929 322.387 178.929 322.022V315.159H179.942V321.98C179.942 322.295 179.945 322.558 179.949 322.771C179.959 322.979 180.007 323.164 180.095 323.326C180.262 323.636 180.525 323.821 180.886 323.881C181.252 323.942 181.703 323.928 182.239 323.84V324.735ZM177.326 318.115V317.241H182.239V318.115H177.326ZM186.574 324.943C185.829 324.943 185.193 324.774 184.666 324.436C184.138 324.099 183.734 323.632 183.451 323.035C183.169 322.438 183.028 321.754 183.028 320.981C183.028 320.195 183.172 319.505 183.458 318.913C183.745 318.321 184.152 317.861 184.68 317.532C185.212 317.199 185.843 317.033 186.574 317.033C187.323 317.033 187.962 317.202 188.489 317.539C189.021 317.872 189.426 318.337 189.703 318.934C189.985 319.526 190.127 320.208 190.127 320.981C190.127 321.767 189.985 322.459 189.703 323.056C189.421 323.648 189.014 324.11 188.482 324.443C187.95 324.776 187.314 324.943 186.574 324.943ZM186.574 323.965C187.407 323.965 188.026 323.689 188.433 323.139C188.841 322.584 189.044 321.865 189.044 320.981C189.044 320.074 188.838 319.353 188.427 318.816C188.019 318.279 187.402 318.011 186.574 318.011C186.014 318.011 185.552 318.138 185.186 318.393C184.825 318.643 184.555 318.992 184.374 319.441C184.199 319.885 184.111 320.398 184.111 320.981C184.111 321.883 184.319 322.607 184.735 323.153C185.151 323.694 185.764 323.965 186.574 323.965ZM191.657 324.735V317.241H192.573V319.045L192.393 318.809C192.476 318.587 192.585 318.384 192.719 318.199C192.853 318.009 192.999 317.854 193.156 317.734C193.35 317.562 193.577 317.433 193.836 317.345C194.095 317.253 194.356 317.199 194.62 317.185C194.884 317.167 195.124 317.185 195.342 317.241V318.199C195.069 318.129 194.77 318.113 194.447 318.15C194.123 318.187 193.824 318.316 193.551 318.539C193.302 318.733 193.114 318.966 192.989 319.239C192.865 319.508 192.781 319.794 192.74 320.1C192.698 320.4 192.677 320.699 192.677 320.995V324.735H191.657ZM202.802 324.943C202.112 324.943 201.529 324.77 201.053 324.423C200.576 324.071 200.216 323.597 199.971 323C199.725 322.399 199.603 321.726 199.603 320.981C199.603 320.222 199.725 319.547 199.971 318.955C200.22 318.358 200.586 317.889 201.067 317.546C201.548 317.204 202.14 317.033 202.843 317.033C203.528 317.033 204.115 317.206 204.606 317.553C205.096 317.9 205.471 318.372 205.73 318.969C205.993 319.565 206.125 320.236 206.125 320.981C206.125 321.73 205.993 322.403 205.73 323C205.466 323.597 205.087 324.071 204.592 324.423C204.097 324.77 203.5 324.943 202.802 324.943ZM199.429 324.735V314.743H200.456V319.094H200.345V324.735H199.429ZM202.697 323.992C203.22 323.992 203.655 323.861 204.002 323.597C204.349 323.333 204.608 322.975 204.779 322.521C204.955 322.063 205.043 321.55 205.043 320.981C205.043 320.417 204.957 319.908 204.786 319.454C204.615 319.001 204.354 318.643 204.002 318.379C203.655 318.115 203.213 317.983 202.677 317.983C202.154 317.983 201.719 318.111 201.372 318.365C201.03 318.619 200.773 318.973 200.602 319.427C200.431 319.875 200.345 320.394 200.345 320.981C200.345 321.559 200.431 322.077 200.602 322.535C200.773 322.989 201.032 323.345 201.379 323.604C201.726 323.863 202.165 323.992 202.697 323.992ZM209.793 324.943C209.229 324.943 208.754 324.841 208.371 324.638C207.991 324.434 207.707 324.164 207.517 323.826C207.327 323.488 207.233 323.12 207.233 322.723C207.233 322.316 207.314 321.969 207.475 321.682C207.642 321.39 207.866 321.152 208.149 320.967C208.435 320.782 208.766 320.641 209.141 320.544C209.52 320.451 209.939 320.37 210.397 320.301C210.859 320.227 211.31 320.165 211.75 320.114C212.194 320.058 212.582 320.005 212.915 319.954L212.555 320.176C212.569 319.436 212.425 318.888 212.124 318.532C211.824 318.175 211.301 317.997 210.556 317.997C210.043 317.997 209.608 318.113 209.252 318.344C208.9 318.576 208.653 318.941 208.509 319.441L207.517 319.149C207.688 318.478 208.033 317.958 208.551 317.588C209.069 317.218 209.742 317.033 210.57 317.033C211.255 317.033 211.835 317.162 212.312 317.421C212.793 317.676 213.133 318.046 213.332 318.532C213.424 318.749 213.484 318.992 213.512 319.26C213.54 319.528 213.554 319.801 213.554 320.079V324.735H212.645V322.854L212.909 322.965C212.654 323.608 212.259 324.099 211.722 324.436C211.185 324.774 210.542 324.943 209.793 324.943ZM209.911 324.062C210.387 324.062 210.804 323.976 211.16 323.805C211.516 323.634 211.803 323.4 212.02 323.104C212.238 322.804 212.379 322.466 212.444 322.091C212.499 321.851 212.529 321.587 212.534 321.3C212.538 321.009 212.541 320.791 212.541 320.648L212.929 320.849C212.582 320.895 212.205 320.942 211.798 320.988C211.396 321.034 210.998 321.087 210.605 321.148C210.216 321.208 209.865 321.279 209.55 321.363C209.337 321.423 209.132 321.508 208.933 321.619C208.734 321.726 208.569 321.869 208.44 322.05C208.315 322.23 208.253 322.454 208.253 322.723C208.253 322.94 208.306 323.151 208.412 323.354C208.523 323.558 208.699 323.726 208.94 323.861C209.185 323.995 209.509 324.062 209.911 324.062ZM220.772 324.735V320.912C220.772 320.495 220.733 320.114 220.654 319.767C220.576 319.415 220.449 319.11 220.273 318.851C220.102 318.587 219.877 318.384 219.6 318.24C219.327 318.097 218.994 318.025 218.601 318.025C218.24 318.025 217.921 318.088 217.643 318.212C217.37 318.337 217.139 318.518 216.949 318.754C216.764 318.985 216.623 319.267 216.526 319.6C216.429 319.933 216.38 320.313 216.38 320.738L215.659 320.579C215.659 319.811 215.793 319.165 216.061 318.643C216.329 318.12 216.699 317.724 217.171 317.456C217.643 317.188 218.184 317.054 218.795 317.054C219.244 317.054 219.634 317.123 219.968 317.262C220.305 317.401 220.59 317.588 220.821 317.824C221.057 318.06 221.247 318.33 221.39 318.636C221.533 318.936 221.637 319.258 221.702 319.6C221.767 319.938 221.799 320.276 221.799 320.613V324.735H220.772ZM215.353 324.735V317.241H216.276V319.087H216.38V324.735H215.353ZM226.453 324.943C225.755 324.943 225.158 324.77 224.663 324.423C224.168 324.071 223.789 323.597 223.525 323C223.261 322.403 223.129 321.73 223.129 320.981C223.129 320.236 223.259 319.565 223.518 318.969C223.782 318.372 224.159 317.9 224.649 317.553C225.139 317.206 225.727 317.033 226.411 317.033C227.115 317.033 227.707 317.204 228.188 317.546C228.669 317.889 229.032 318.358 229.277 318.955C229.527 319.547 229.652 320.222 229.652 320.981C229.652 321.726 229.529 322.399 229.284 323C229.039 323.597 228.678 324.071 228.202 324.423C227.725 324.77 227.142 324.943 226.453 324.943ZM226.557 323.992C227.089 323.992 227.529 323.863 227.876 323.604C228.222 323.345 228.482 322.989 228.653 322.535C228.824 322.077 228.909 321.559 228.909 320.981C228.909 320.394 228.824 319.875 228.653 319.427C228.482 318.973 228.222 318.619 227.876 318.365C227.533 318.111 227.101 317.983 226.578 317.983C226.041 317.983 225.597 318.115 225.246 318.379C224.894 318.643 224.633 319.001 224.462 319.454C224.295 319.908 224.212 320.417 224.212 320.981C224.212 321.55 224.297 322.063 224.469 322.521C224.644 322.975 224.906 323.333 225.253 323.597C225.6 323.861 226.034 323.992 226.557 323.992ZM228.909 324.735V319.094H228.798V314.743H229.825V324.735H228.909ZM233.368 324.735L231.078 317.234L232.098 317.241L233.874 323.063L235.658 317.241H236.588L238.371 323.063L240.161 317.241H241.174L238.884 324.735H237.996L236.123 318.768L234.256 324.735H233.368ZM242.563 315.819V314.674H243.583V315.819H242.563ZM242.563 324.735V317.241H243.583V324.735H242.563ZM248.57 324.943C247.872 324.943 247.275 324.77 246.78 324.423C246.285 324.071 245.906 323.597 245.642 323C245.379 322.403 245.247 321.73 245.247 320.981C245.247 320.236 245.376 319.565 245.635 318.969C245.899 318.372 246.276 317.9 246.766 317.553C247.257 317.206 247.844 317.033 248.529 317.033C249.232 317.033 249.824 317.204 250.305 317.546C250.786 317.889 251.149 318.358 251.395 318.955C251.644 319.547 251.769 320.222 251.769 320.981C251.769 321.726 251.647 322.399 251.401 323C251.156 323.597 250.795 324.071 250.319 324.423C249.843 324.77 249.26 324.943 248.57 324.943ZM248.675 323.992C249.207 323.992 249.646 323.863 249.993 323.604C250.34 323.345 250.599 322.989 250.77 322.535C250.941 322.077 251.027 321.559 251.027 320.981C251.027 320.394 250.941 319.875 250.77 319.427C250.599 318.973 250.34 318.619 249.993 318.365C249.651 318.111 249.218 317.983 248.695 317.983C248.159 317.983 247.715 318.115 247.363 318.379C247.012 318.643 246.75 319.001 246.579 319.454C246.412 319.908 246.329 320.417 246.329 320.981C246.329 321.55 246.415 322.063 246.586 322.521C246.762 322.975 247.023 323.333 247.37 323.597C247.717 323.861 248.152 323.992 248.675 323.992ZM251.027 324.735V319.094H250.916V314.743H251.943V324.735H251.027ZM257.969 324.735C257.548 324.823 257.132 324.857 256.72 324.839C256.313 324.82 255.948 324.733 255.624 324.575C255.305 324.418 255.062 324.173 254.895 323.84C254.761 323.562 254.687 323.282 254.673 323C254.664 322.713 254.66 322.387 254.66 322.022V315.159H255.673V321.98C255.673 322.295 255.675 322.558 255.68 322.771C255.689 322.979 255.737 323.164 255.825 323.326C255.992 323.636 256.255 323.821 256.616 323.881C256.982 323.942 257.433 323.928 257.969 323.84V324.735ZM253.057 318.115V317.241H257.969V318.115H253.057ZM264.858 324.735V320.912C264.858 320.495 264.819 320.114 264.74 319.767C264.661 319.415 264.534 319.11 264.358 318.851C264.187 318.587 263.963 318.384 263.685 318.24C263.412 318.097 263.079 318.025 262.686 318.025C262.325 318.025 262.006 318.088 261.729 318.212C261.456 318.337 261.224 318.518 261.035 318.754C260.85 318.985 260.709 319.267 260.612 319.6C260.514 319.933 260.466 320.313 260.466 320.738L259.744 320.579C259.744 319.811 259.878 319.165 260.147 318.643C260.415 318.12 260.785 317.724 261.257 317.456C261.729 317.188 262.27 317.054 262.88 317.054C263.329 317.054 263.72 317.123 264.053 317.262C264.391 317.401 264.675 317.588 264.907 317.824C265.143 318.06 265.332 318.33 265.476 318.636C265.619 318.936 265.723 319.258 265.788 319.6C265.853 319.938 265.885 320.276 265.885 320.613V324.735H264.858ZM259.439 324.735V314.743H260.362V320.384H260.466V324.735H259.439Z" fill="black"/>
<ellipse cx="90.2751" cy="320.63" rx="2.485" ry="2.47813" fill="#69E6A6"/>
<path d="M104.369 360.621C103.874 360.621 103.418 360.533 103.002 360.357C102.586 360.181 102.227 359.932 101.926 359.608C101.626 359.279 101.406 358.889 101.267 358.435L102.239 358.144C102.405 358.639 102.678 359.013 103.057 359.268C103.441 359.522 103.874 359.645 104.355 359.636C104.799 359.626 105.181 359.527 105.5 359.337C105.824 359.148 106.071 358.884 106.242 358.546C106.413 358.209 106.499 357.818 106.499 357.374C106.499 356.694 106.3 356.148 105.902 355.736C105.509 355.32 104.989 355.112 104.341 355.112C104.161 355.112 103.971 355.137 103.772 355.188C103.573 355.234 103.388 355.301 103.217 355.389L102.704 354.577L106.589 350.99L106.756 351.406H101.663V350.428H107.436V351.42L104.05 354.654L104.036 354.251C104.73 354.163 105.34 354.242 105.868 354.487C106.395 354.732 106.807 355.107 107.103 355.611C107.403 356.111 107.554 356.698 107.554 357.374C107.554 358.012 107.415 358.576 107.137 359.067C106.864 359.552 106.487 359.934 106.006 360.212C105.525 360.484 104.979 360.621 104.369 360.621ZM112.303 360.628C111.785 360.628 111.306 360.521 110.867 360.309C110.427 360.096 110.053 359.802 109.743 359.427C109.433 359.053 109.211 358.623 109.077 358.137L110.055 357.873C110.143 358.234 110.302 358.546 110.534 358.81C110.765 359.069 111.036 359.27 111.346 359.414C111.66 359.557 111.989 359.629 112.331 359.629C112.775 359.629 113.173 359.522 113.524 359.309C113.881 359.092 114.163 358.805 114.371 358.449C114.579 358.093 114.683 357.702 114.683 357.276C114.683 356.837 114.574 356.441 114.357 356.09C114.14 355.734 113.853 355.452 113.497 355.243C113.14 355.035 112.752 354.931 112.331 354.931C111.859 354.931 111.452 355.035 111.11 355.243C110.767 355.447 110.494 355.704 110.291 356.014L109.361 355.625L109.666 350.428H115.002V351.406H110.117L110.624 350.927L110.353 355.361L110.097 355.021C110.383 354.693 110.73 354.436 111.137 354.251C111.544 354.066 111.972 353.974 112.421 353.974C113.036 353.974 113.591 354.122 114.086 354.418C114.581 354.709 114.975 355.105 115.266 355.604C115.557 356.104 115.703 356.661 115.703 357.276C115.703 357.887 115.548 358.447 115.238 358.956C114.928 359.46 114.517 359.865 114.003 360.17C113.49 360.475 112.923 360.628 112.303 360.628ZM118.335 360.42L117.641 359.726L126.96 350.428L127.654 351.115L118.335 360.42ZM125.572 360.628C125.114 360.628 124.696 360.517 124.316 360.295C123.941 360.068 123.641 359.767 123.414 359.393C123.187 359.013 123.074 358.592 123.074 358.13C123.074 357.677 123.19 357.26 123.421 356.881C123.652 356.502 123.958 356.199 124.337 355.972C124.716 355.745 125.128 355.632 125.572 355.632C126.03 355.632 126.449 355.745 126.828 355.972C127.207 356.194 127.508 356.495 127.73 356.874C127.957 357.249 128.07 357.667 128.07 358.13C128.07 358.592 127.957 359.013 127.73 359.393C127.508 359.767 127.207 360.068 126.828 360.295C126.449 360.517 126.03 360.628 125.572 360.628ZM125.572 359.705C125.854 359.705 126.116 359.633 126.356 359.49C126.597 359.346 126.789 359.157 126.932 358.921C127.076 358.68 127.147 358.417 127.147 358.13C127.147 357.843 127.076 357.582 126.932 357.346C126.789 357.105 126.597 356.913 126.356 356.77C126.116 356.626 125.854 356.555 125.572 356.555C125.285 356.555 125.022 356.626 124.781 356.77C124.545 356.913 124.353 357.105 124.205 357.346C124.062 357.582 123.99 357.843 123.99 358.13C123.99 358.417 124.062 358.68 124.205 358.921C124.353 359.157 124.545 359.346 124.781 359.49C125.022 359.633 125.285 359.705 125.572 359.705ZM119.723 355.216C119.265 355.216 118.846 355.105 118.467 354.883C118.087 354.656 117.784 354.355 117.558 353.98C117.336 353.601 117.225 353.18 117.225 352.718C117.225 352.264 117.34 351.848 117.572 351.469C117.803 351.089 118.108 350.786 118.488 350.56C118.867 350.333 119.279 350.22 119.723 350.22C120.181 350.22 120.597 350.333 120.972 350.56C121.351 350.782 121.654 351.082 121.881 351.462C122.107 351.836 122.221 352.255 122.221 352.718C122.221 353.18 122.107 353.601 121.881 353.98C121.654 354.355 121.351 354.656 120.972 354.883C120.597 355.105 120.181 355.216 119.723 355.216ZM119.723 354.293C120.01 354.293 120.271 354.221 120.507 354.078C120.747 353.934 120.939 353.745 121.083 353.509C121.226 353.268 121.298 353.004 121.298 352.718C121.298 352.431 121.226 352.169 121.083 351.934C120.939 351.693 120.747 351.501 120.507 351.358C120.271 351.214 120.01 351.143 119.723 351.143C119.436 351.143 119.172 351.214 118.932 351.358C118.696 351.501 118.506 351.693 118.363 351.934C118.219 352.169 118.148 352.431 118.148 352.718C118.148 353.004 118.219 353.268 118.363 353.509C118.506 353.745 118.696 353.934 118.932 354.078C119.172 354.221 119.436 354.293 119.723 354.293ZM132.512 356.485V355.611H136.675V356.485H132.512ZM143.341 360.42L146.782 350.428H148.135L151.577 360.42H150.515L147.247 350.997H147.65L144.402 360.42H143.341ZM144.874 357.998V357.04H150.036V357.998H144.874ZM155.356 350.428L152.691 360.42H153.739L156.403 350.428H155.356ZM158.21 360.42V350.428H162.068C162.628 350.428 163.116 350.543 163.532 350.775C163.949 351.006 164.272 351.318 164.504 351.712C164.735 352.1 164.851 352.53 164.851 353.002C164.851 353.539 164.707 354.018 164.42 354.438C164.134 354.855 163.75 355.144 163.269 355.306L163.255 354.966C163.902 355.151 164.411 355.475 164.781 355.937C165.151 356.4 165.336 356.96 165.336 357.616C165.336 358.195 165.214 358.694 164.969 359.115C164.723 359.532 164.379 359.853 163.935 360.08C163.491 360.306 162.975 360.42 162.387 360.42H158.21ZM159.237 359.441H162.137C162.545 359.441 162.91 359.37 163.234 359.226C163.558 359.078 163.812 358.87 163.997 358.602C164.187 358.333 164.282 358.01 164.282 357.63C164.282 357.26 164.196 356.927 164.025 356.631C163.854 356.335 163.62 356.099 163.324 355.923C163.033 355.743 162.7 355.653 162.325 355.653H159.237V359.441ZM159.237 354.688H162.061C162.38 354.688 162.672 354.617 162.935 354.473C163.199 354.325 163.407 354.124 163.56 353.869C163.717 353.615 163.796 353.321 163.796 352.988C163.796 352.516 163.632 352.132 163.303 351.836C162.979 351.54 162.565 351.392 162.061 351.392H159.237V354.688ZM173.579 360.42C173.158 360.508 172.742 360.542 172.33 360.524C171.923 360.505 171.558 360.417 171.234 360.26C170.915 360.103 170.672 359.858 170.505 359.525C170.371 359.247 170.297 358.967 170.283 358.685C170.274 358.398 170.269 358.072 170.269 357.707V350.844H171.282V357.665C171.282 357.98 171.285 358.243 171.289 358.456C171.299 358.664 171.347 358.849 171.435 359.011C171.602 359.321 171.865 359.506 172.226 359.566C172.592 359.626 173.043 359.612 173.579 359.525V360.42ZM168.667 353.8V352.926H173.579V353.8H168.667ZM177.956 360.628C177.225 360.628 176.591 360.466 176.054 360.142C175.522 359.818 175.108 359.363 174.812 358.775C174.516 358.188 174.368 357.498 174.368 356.707C174.368 355.889 174.514 355.181 174.805 354.584C175.097 353.987 175.506 353.527 176.034 353.203C176.566 352.88 177.192 352.718 177.914 352.718C178.654 352.718 179.286 352.889 179.808 353.231C180.331 353.569 180.727 354.055 180.995 354.688C181.263 355.322 181.386 356.078 181.363 356.957H180.322V356.596C180.303 355.625 180.093 354.892 179.69 354.397C179.292 353.902 178.71 353.654 177.942 353.654C177.137 353.654 176.519 353.916 176.089 354.438C175.664 354.961 175.451 355.706 175.451 356.673C175.451 357.616 175.664 358.35 176.089 358.872C176.519 359.39 177.128 359.649 177.914 359.649C178.451 359.649 178.918 359.527 179.316 359.282C179.718 359.032 180.035 358.673 180.266 358.206L181.217 358.574C180.921 359.226 180.484 359.733 179.905 360.094C179.332 360.45 178.682 360.628 177.956 360.628ZM175.09 356.957V356.104H180.814V356.957H175.09ZM185.699 360.621C184.82 360.621 184.096 360.431 183.527 360.052C182.963 359.673 182.616 359.145 182.486 358.47L183.527 358.296C183.638 358.722 183.89 359.062 184.283 359.316C184.681 359.566 185.171 359.691 185.754 359.691C186.323 359.691 186.772 359.573 187.1 359.337C187.429 359.097 187.593 358.771 187.593 358.359C187.593 358.128 187.54 357.94 187.433 357.797C187.332 357.649 187.121 357.512 186.802 357.387C186.483 357.263 186.006 357.115 185.373 356.943C184.693 356.758 184.161 356.573 183.777 356.388C183.393 356.203 183.12 355.99 182.958 355.75C182.796 355.505 182.715 355.206 182.715 354.855C182.715 354.429 182.835 354.057 183.076 353.738C183.316 353.414 183.65 353.164 184.075 352.988C184.501 352.808 184.996 352.718 185.56 352.718C186.124 352.718 186.629 352.81 187.073 352.995C187.521 353.176 187.882 353.43 188.155 353.758C188.428 354.087 188.59 354.469 188.641 354.903L187.6 355.091C187.531 354.651 187.311 354.304 186.941 354.05C186.575 353.791 186.11 353.657 185.546 353.647C185.014 353.634 184.582 353.735 184.249 353.953C183.915 354.166 183.749 354.45 183.749 354.806C183.749 355.005 183.809 355.176 183.929 355.32C184.05 355.458 184.267 355.59 184.582 355.715C184.901 355.84 185.354 355.977 185.942 356.125C186.631 356.3 187.172 356.485 187.565 356.68C187.958 356.874 188.238 357.103 188.405 357.367C188.571 357.63 188.655 357.956 188.655 358.345C188.655 359.053 188.391 359.61 187.864 360.017C187.341 360.42 186.619 360.621 185.699 360.621ZM194.274 360.42C193.853 360.508 193.436 360.542 193.025 360.524C192.618 360.505 192.252 360.417 191.928 360.26C191.609 360.103 191.366 359.858 191.2 359.525C191.066 359.247 190.992 358.967 190.978 358.685C190.968 358.398 190.964 358.072 190.964 357.707V350.844H191.977V357.665C191.977 357.98 191.979 358.243 191.984 358.456C191.993 358.664 192.042 358.849 192.129 359.011C192.296 359.321 192.56 359.506 192.921 359.566C193.286 359.626 193.737 359.612 194.274 359.525V360.42ZM189.361 353.8V352.926H194.274V353.8H189.361ZM195.889 351.503V350.358H196.909V351.503H195.889ZM195.889 360.42V352.926H196.909V360.42H195.889ZM204.401 360.42V356.596C204.401 356.18 204.362 355.798 204.283 355.452C204.205 355.1 204.077 354.795 203.902 354.536C203.731 354.272 203.506 354.068 203.229 353.925C202.956 353.782 202.623 353.71 202.229 353.71C201.869 353.71 201.549 353.772 201.272 353.897C200.999 354.022 200.768 354.203 200.578 354.438C200.393 354.67 200.252 354.952 200.155 355.285C200.058 355.618 200.009 355.997 200.009 356.423L199.287 356.263C199.287 355.495 199.422 354.85 199.69 354.327C199.958 353.805 200.328 353.409 200.8 353.141C201.272 352.873 201.813 352.738 202.424 352.738C202.872 352.738 203.263 352.808 203.596 352.947C203.934 353.085 204.219 353.273 204.45 353.509C204.686 353.745 204.875 354.015 205.019 354.32C205.162 354.621 205.266 354.943 205.331 355.285C205.396 355.623 205.428 355.96 205.428 356.298V360.42H204.401ZM198.982 360.42V352.926H199.905V354.772H200.009V360.42H198.982ZM210.206 363.958C209.822 363.958 209.442 363.901 209.068 363.785C208.698 363.674 208.355 363.496 208.041 363.251C207.726 363.01 207.462 362.696 207.25 362.307L208.172 361.794C208.381 362.21 208.672 362.508 209.047 362.689C209.426 362.874 209.812 362.966 210.206 362.966C210.747 362.966 211.184 362.864 211.517 362.661C211.855 362.462 212.1 362.166 212.252 361.773C212.405 361.38 212.479 360.889 212.475 360.302V358.303H212.592V352.926H213.501V360.316C213.501 360.528 213.495 360.732 213.481 360.926C213.471 361.125 213.451 361.319 213.418 361.509C213.33 362.069 213.148 362.529 212.87 362.89C212.597 363.251 212.236 363.519 211.788 363.695C211.343 363.871 210.816 363.958 210.206 363.958ZM210.136 360.628C209.438 360.628 208.841 360.454 208.346 360.107C207.851 359.756 207.472 359.282 207.208 358.685C206.944 358.088 206.812 357.415 206.812 356.666C206.812 355.921 206.942 355.25 207.201 354.654C207.465 354.057 207.842 353.585 208.332 353.238C208.822 352.891 209.41 352.718 210.095 352.718C210.798 352.718 211.39 352.889 211.871 353.231C212.352 353.573 212.715 354.043 212.96 354.64C213.21 355.232 213.335 355.907 213.335 356.666C213.335 357.411 213.212 358.084 212.967 358.685C212.722 359.282 212.361 359.756 211.885 360.107C211.408 360.454 210.825 360.628 210.136 360.628ZM210.24 359.677C210.772 359.677 211.212 359.548 211.559 359.289C211.906 359.03 212.165 358.673 212.336 358.22C212.507 357.762 212.592 357.244 212.592 356.666C212.592 356.078 212.507 355.56 212.336 355.112C212.165 354.658 211.906 354.304 211.559 354.05C211.216 353.795 210.784 353.668 210.261 353.668C209.724 353.668 209.28 353.8 208.929 354.064C208.577 354.327 208.316 354.686 208.145 355.139C207.978 355.593 207.895 356.101 207.895 356.666C207.895 357.235 207.98 357.748 208.152 358.206C208.327 358.66 208.589 359.018 208.936 359.282C209.283 359.545 209.718 359.677 210.24 359.677Z" fill="black"/>
<ellipse cx="90.2751" cy="356.315" rx="2.485" ry="2.47813" fill="#C4C4C4"/>
</g>
<defs>
<filter id="filter0_d_56_719" x="0" y="0" width="355" height="452" filterUnits="userSpaceOnUse" color-interpolation-filters="sRGB">
<feFlood flood-opacity="0" result="BackgroundImageFix"/>
<feColorMatrix in="SourceAlpha" type="matrix" values="0 0 0 0 0 0 0 0 0 0 0 0 0 0 0 0 0 0 127 0" result="hardAlpha"/>
<feOffset dy="4"/>
<feGaussianBlur stdDeviation="16"/>
<feComposite in2="hardAlpha" operator="out"/>
<feColorMatrix type="matrix" values="0 0 0 0 0 0 0 0 0 0 0 0 0 0 0 0 0 0 0.12 0"/>
<feBlend mode="normal" in2="BackgroundImageFix" result="effect1_dropShadow_56_719"/>
<feBlend mode="normal" in="SourceGraphic" in2="effect1_dropShadow_56_719" result="shape"/>
</filter>
<clipPath id="clip0_56_719">
<rect width="173.469" height="173.469" fill="white" transform="translate(90.2682 75.79)"/>
</clipPath>
<clipPath id="clip1_56_719">
<rect width="179.417" height="95.1603" fill="white" transform="translate(87.7901 273.05)"/>
</clipPath>
</defs>
</svg>
